# Blender v2.81 (sub 16) OBJ File: ''
# www.blender.org
mtllib Rock.mtl
o Cube.001
v -0.178208 0.189756 0.067898
v -0.150294 0.358372 0.017399
v -0.304558 0.298413 0.019380
v -0.335651 0.149899 0.065354
v -0.192308 0.221514 -0.398911
v -0.341861 0.205973 -0.384369
v -0.294864 0.343847 -0.352485
v -0.172017 0.410423 -0.344384
v 0.345847 0.306349 -0.320368
v 0.253605 0.282682 -0.403924
v 0.144270 0.466205 -0.309814
v 0.291964 0.440007 -0.203264
v -0.272285 0.429761 -0.223088
v -0.373408 0.377482 -0.265197
v -0.504764 -0.197874 -0.274952
v -0.395739 -0.202996 -0.373511
v -0.193491 -0.432413 -0.354137
v -0.281290 -0.417374 -0.277822
v -0.214246 -0.324843 -0.044718
v -0.085369 -0.198555 0.018091
v -0.196664 -0.238692 0.034290
v -0.307915 -0.292623 -0.022356
v -0.096838 -0.166966 0.065903
v -0.131799 0.000842 0.082213
v -0.317322 -0.023479 0.076205
v -0.247641 -0.149074 0.065761
v 0.175486 -0.185228 0.085234
v 0.155195 -0.021259 0.093635
v 0.006331 -0.006014 0.093812
v 0.062906 -0.147679 0.056542
v 0.126104 0.172010 0.089445
v 0.084144 0.369380 0.042443
v -0.035301 0.380755 0.034350
v -0.020814 0.190848 0.082305
v 0.113902 0.271166 -0.411266
v -0.048335 0.201304 -0.408114
v -0.092386 0.531059 -0.345714
v -0.008516 0.550872 -0.330878
v 0.251537 -0.202941 -0.399994
v 0.029968 -0.286236 -0.382891
v 0.024900 -0.064060 -0.405470
v 0.194518 -0.075175 -0.405703
v -0.152185 -0.254764 -0.387014
v -0.342060 0.014998 -0.390973
v -0.169935 0.008676 -0.403075
v 0.415368 0.236105 -0.056929
v 0.391306 0.314565 -0.189219
v 0.357648 0.426534 -0.143412
v 0.315444 0.405943 -0.055047
v 0.408206 -0.244759 -0.038214
v 0.391200 -0.194859 -0.180062
v 0.363623 0.062768 -0.207741
v 0.391738 -0.007107 -0.072327
v 0.438131 -0.200052 -0.269162
v 0.380654 -0.166283 -0.365060
v 0.303697 0.026427 -0.373968
v 0.326342 0.071312 -0.320551
v -0.200940 0.416140 -0.057191
v -0.302003 0.398937 -0.120878
v -0.483350 0.268134 -0.135603
v -0.460334 0.243271 -0.033084
v 0.159350 0.431895 -0.046031
v 0.211177 0.446664 -0.131980
v 0.089091 0.421694 -0.135792
v -0.029468 0.463565 -0.047003
v 0.168325 0.435195 -0.207423
v -0.008993 0.492717 -0.195618
v -0.392863 -0.230367 0.023609
v -0.516901 -0.205326 -0.095884
v -0.344650 -0.328008 -0.144468
v -0.454046 0.158351 -0.010054
v -0.482877 0.149766 -0.138784
v -0.483596 -0.007151 -0.128946
v -0.453465 -0.064617 0.046140
v -0.419228 0.236092 -0.305130
v -0.433848 0.025658 -0.320555
v -0.067891 -0.502974 -0.275034
v -0.221569 -0.408692 -0.149268
v 0.251679 -0.446517 -0.255095
v 0.177963 -0.436892 -0.134780
v -0.048879 -0.448869 -0.101046
v 0.057036 -0.537610 -0.251775
v 0.164882 -0.347456 -0.034408
v 0.151753 -0.295983 0.042858
v 0.031248 -0.222998 0.021814
v -0.043086 -0.358111 -0.018284
v 0.280147 -0.311360 0.035010
v 0.323675 -0.179301 0.057148
v 0.324690 -0.032340 0.047279
v 0.313728 0.153136 0.037938
v 0.231962 0.332087 0.022810
v 0.402194 -0.295004 -0.325126
v 0.242204 -0.377852 -0.336658
v 0.042646 -0.463462 -0.338046
v -0.041429 -0.528290 -0.344152
v 0.335450 -0.374208 -0.052535
v 0.371176 -0.354447 -0.161474
v 0.426816 -0.342486 -0.242273
vt 0.137636 0.563411
vt 0.058285 0.569867
vt 0.082613 0.506661
vt 0.152906 0.498683
vt 0.155028 0.344089
vt 0.206316 0.378186
vt 0.155630 0.402329
vt 0.099783 0.387655
vt 0.896175 0.282885
vt 0.854473 0.349296
vt 0.794976 0.248970
vt 0.870663 0.174892
vt 0.949240 0.587705
vt 0.944083 0.694636
vt 0.905653 0.682602
vt 0.916733 0.604517
vt 0.336809 0.082005
vt 0.369246 0.000842
vt 0.489191 0.000000
vt 0.460672 0.063535
vt 0.485748 0.254952
vt 0.512673 0.310590
vt 0.481603 0.323059
vt 0.447322 0.276247
vt 0.276846 0.583529
vt 0.215363 0.578539
vt 0.223692 0.502410
vt 0.270084 0.523882
vt 0.288525 0.695621
vt 0.226456 0.694739
vt 0.220811 0.635843
vt 0.266533 0.646047
vt 0.149628 0.688747
vt 0.060049 0.668982
vt 0.053708 0.620010
vt 0.140662 0.629249
vt 0.046020 0.277128
vt 0.115533 0.299946
vt 0.042023 0.402498
vt 0.011393 0.383384
vt 0.133867 0.094672
vt 0.226136 0.127633
vt 0.165692 0.199396
vt 0.116225 0.149680
vt 0.273683 0.187557
vt 0.335575 0.267841
vt 0.258354 0.321530
vt 0.206193 0.274302
vt 0.422948 0.654063
vt 0.520455 0.684734
vt 0.477461 0.726331
vt 0.404599 0.713241
vt 0.422729 0.459207
vt 0.529375 0.479105
vt 0.539575 0.580737
vt 0.439840 0.553878
vt 0.744126 0.814485
vt 0.672331 0.787452
vt 0.683844 0.711964
vt 0.731678 0.707183
vt 0.016271 0.536299
vt 0.006598 0.482318
vt 0.054401 0.402498
vt 0.090851 0.431859
vt 0.857058 0.070133
vt 0.855242 0.125920
vt 0.818683 0.137473
vt 0.786060 0.070157
vt 0.829103 0.182611
vt 0.720806 0.251159
vt 0.693981 0.268226
vt 0.758736 0.168010
vt 0.408067 0.318081
vt 0.348488 0.225548
vt 0.431026 0.176751
vt 0.834672 0.401576
vt 0.821728 0.494375
vt 0.758928 0.488146
vt 0.747834 0.361119
vt 0.853441 0.628842
vt 0.844101 0.700647
vt 0.766741 0.707183
vt 0.766456 0.640000
vt 0.554998 0.057463
vt 0.491069 0.166304
vt 0.661203 0.071636
vt 0.642437 0.169965
vt 0.565426 0.199969
vt 0.608937 0.072162
vt 0.628288 0.255903
vt 0.619708 0.321108
vt 0.560004 0.310321
vt 0.556413 0.271543
vt 0.934356 0.187628
vt 0.907061 0.133559
vt 0.622627 0.581780
vt 0.617335 0.678426
vt 0.662917 0.562066
vt 0.672331 0.661064
vt 0.939564 0.506329
vt 0.869574 0.490922
vt 0.791582 0.866218
vt 0.744126 0.821215
vt 0.752056 0.707183
vt 0.791426 0.711743
vt 1.000000 0.606532
vt 0.999879 0.706758
vt 0.672331 0.596657
vt 0.677773 0.459778
vt 0.674914 0.687648
vt 0.387737 0.801509
vt 0.336809 0.833560
vt 0.336920 0.785916
vt 0.384519 0.726331
vt 0.506205 0.350977
vt 0.448079 0.354288
vt 0.559475 0.342029
vt 0.609960 0.361119
vt 0.324683 0.722893
vt 0.278588 0.749240
vt 0.320949 0.673747
vt 0.218381 0.752553
vt 0.143231 0.752483
vt 0.069266 0.722735
vt 0.808347 0.361119
vt 0.056221 0.145884
vt 0.000000 0.241327
vt 0.085645 0.065345
vt 0.116277 0.014773
vt 0.187902 0.035191
vt 0.273048 0.064123
vt 0.316518 0.068429
vt 0.336809 0.140426
vt 0.340137 0.610197
vt 0.336809 0.674909
vt 0.339988 0.536299
vt 0.336833 0.476818
vt 0.353162 0.419686
vt 0.429528 0.400325
vt 0.517650 0.412671
vt 0.604166 0.482239
vt 0.586459 0.423461
vt 0.646477 0.441109
vt 0.670954 0.491413
vt 0.000000 0.608449
vt 0.694133 0.143704
vt 0.736508 0.092307
vt 0.012308 0.682984
vt 0.019832 0.742597
vt 0.913859 0.076969
vt 0.232244 0.440506
vt 0.291247 0.454530
vt 0.685316 0.388716
vt 0.130148 0.436240
vt 0.867108 0.417288
vt 0.563922 0.000091
vt 0.582099 0.007382
vt 0.207942 0.000000
vt 0.293309 0.025246
vt 0.579472 0.365264
vt 0.639569 0.392860
vt 0.477201 0.361119
vt 0.693981 0.150197
vt 0.693822 0.237100
vt 0.668575 0.311882
vn -0.0895 0.1840 0.9788
vn -0.2165 0.5243 0.8235
vn -0.3000 0.5136 0.8039
vn -0.2580 0.1915 0.9469
vn -0.0948 0.1369 -0.9860
vn -0.4011 0.1755 -0.8990
vn -0.3419 0.5143 -0.7865
vn -0.3126 0.6146 -0.7242
vn 0.7819 0.3050 -0.5436
vn 0.4462 0.2689 -0.8535
vn 0.3356 0.8281 -0.4490
vn 0.4037 0.8722 -0.2759
vn -0.3868 0.9189 0.0774
vn -0.6475 0.6877 -0.3283
vn -0.8889 -0.2757 -0.3657
vn -0.4516 -0.2291 -0.8623
vn -0.3514 -0.6082 -0.7117
vn -0.5660 -0.8112 -0.1468
vn -0.1618 -0.6907 0.7048
vn -0.0125 -0.4819 0.8761
vn 0.0794 -0.5891 0.8041
vn -0.2354 -0.7440 0.6253
vn 0.0269 -0.3670 0.9298
vn -0.0387 -0.0319 0.9987
vn -0.1730 -0.0179 0.9847
vn -0.0513 -0.2867 0.9566
vn -0.0174 -0.1876 0.9821
vn 0.0829 -0.0227 0.9963
vn -0.0503 -0.0641 0.9966
vn -0.1403 -0.2890 0.9470
vn 0.1171 0.1408 0.9831
vn 0.1031 0.4953 0.8625
vn -0.0828 0.5205 0.8498
vn -0.0676 0.1519 0.9861
vn 0.0876 0.1794 -0.9799
vn -0.0494 0.0843 -0.9952
vn -0.2286 0.8083 -0.5426
vn 0.1391 0.9149 -0.3788
vn 0.1562 -0.1498 -0.9763
vn 0.0322 -0.1723 -0.9845
vn -0.0197 -0.0503 -0.9985
vn 0.0896 -0.0183 -0.9958
vn -0.0342 -0.1217 -0.9920
vn -0.3558 0.0198 -0.9343
vn -0.0523 -0.0280 -0.9982
vn 0.9229 0.1408 0.3582
vn 0.9473 0.2593 -0.1883
vn 0.6671 0.7449 0.0095
vn 0.4992 0.6797 0.5374
vn 0.9213 -0.1900 0.3393
vn 0.9934 0.0313 0.1098
vn 0.9857 0.0396 -0.1636
vn 0.9779 0.0217 0.2078
vn 0.9909 0.0930 -0.0972
vn 0.6210 0.0237 -0.7834
vn 0.5395 0.1011 -0.8359
vn 0.9055 0.0924 -0.4140
vn -0.2922 0.9321 0.2137
vn -0.4325 0.8477 0.3070
vn -0.8950 0.4437 0.0447
vn -0.7352 0.3882 0.5557
vn 0.1290 0.9077 0.3992
vn 0.0984 0.9882 0.1170
vn 0.0216 0.9946 0.1012
vn -0.0912 0.9735 0.2097
vn 0.1607 0.9604 0.2273
vn -0.0765 0.9128 0.4010
vn -0.4633 -0.5017 0.7305
vn -0.9069 -0.3612 0.2169
vn -0.5166 -0.8173 0.2553
vn -0.7803 0.1375 0.6101
vn -0.9957 0.0633 -0.0672
vn -0.9962 0.0784 0.0387
vn -0.6719 -0.0327 0.7399
vn -0.8011 0.2090 -0.5608
vn -0.8296 0.0931 -0.5505
vn -0.2745 -0.9601 0.0540
vn -0.3685 -0.8319 0.4148
vn 0.4233 -0.8910 -0.1641
vn 0.2382 -0.8493 0.4711
vn -0.1119 -0.8235 0.5562
vn 0.1661 -0.9861 0.0005
vn 0.0252 -0.7692 0.6385
vn -0.0960 -0.4942 0.8640
vn -0.1454 -0.4334 0.8893
vn -0.1140 -0.5484 0.8284
vn 0.2342 -0.5606 0.7943
vn 0.5142 -0.1029 0.8515
vn 0.5687 0.0433 0.8214
vn 0.5166 0.1156 0.8484
vn 0.3168 0.4081 0.8562
vn 0.6280 -0.3502 -0.6950
vn 0.2757 -0.5207 -0.8079
vn 0.1712 -0.5482 -0.8186
vn -0.0507 -0.7562 -0.6524
vn 0.5047 -0.7395 0.4454
vn 0.7243 -0.6254 0.2900
vn 0.8654 -0.5009 -0.0094
usemtl Material.002
s 1
f 1/1/1 2/2/2 3/3/3 4/4/4
f 5/5/5 6/6/6 7/7/7 8/8/8
f 9/9/9 10/10/10 11/11/11 12/12/12
f 13/13/13 8/14/8 7/15/7 14/16/14
f 15/17/15 16/18/16 17/19/17 18/20/18
f 19/21/19 20/22/20 21/23/21 22/24/22
f 23/25/23 24/26/24 25/27/25 26/28/26
f 27/29/27 28/30/28 29/31/29 30/32/30
f 31/33/31 32/34/32 33/35/33 34/36/34
f 35/37/35 36/38/36 37/39/37 38/40/38
f 39/41/39 40/42/40 41/43/41 42/44/42
f 43/45/43 16/46/16 44/47/44 45/48/45
f 46/49/46 47/50/47 48/51/48 49/52/49
f 50/53/50 51/54/51 52/55/52 53/56/53
f 54/57/54 55/58/55 56/59/56 57/60/57
f 58/61/58 59/62/59 60/63/60 61/64/61
f 62/65/62 63/66/63 64/67/64 65/68/65
f 66/69/66 38/70/38 37/71/37 67/72/67
f 68/73/68 69/74/69 70/75/70 22/24/22
f 71/76/71 72/77/72 73/78/73 74/79/74
f 75/80/75 6/81/6 44/82/44 76/83/76
f 77/84/77 78/85/78 70/75/70 18/20/18
f 79/86/79 80/87/80 81/88/81 82/89/82
f 83/90/83 84/91/84 85/92/85 86/93/86
f 24/26/24 1/1/1 4/4/4 25/27/25
f 29/31/29 34/36/34 1/1/1 24/26/24
f 34/36/34 33/35/33 2/2/2 1/1/1
f 36/38/36 5/5/5 8/8/8 37/39/37
f 41/43/41 45/48/45 5/5/5 36/38/36
f 45/48/45 44/47/44 6/6/6 5/5/5
f 47/94/47 9/9/9 12/12/12 48/95/48
f 52/55/52 57/96/57 9/97/9 47/50/47
f 57/96/57 56/98/56 10/99/10 9/97/9
f 59/100/59 13/13/13 14/16/14 60/101/60
f 64/102/64 67/103/67 13/104/13 59/105/59
f 67/106/67 37/107/37 8/14/8 13/13/13
f 69/74/69 15/17/15 18/20/18 70/75/70
f 73/78/73 76/83/76 15/108/15 69/109/69
f 76/83/76 44/82/44 16/110/16 15/108/15
f 78/85/78 19/21/19 22/24/22 70/75/70
f 81/88/81 86/93/86 19/21/19 78/85/78
f 86/111/86 85/112/85 20/113/20 19/114/19
f 20/22/20 23/115/23 26/116/26 21/23/21
f 85/92/85 30/117/30 23/115/23 20/22/20
f 30/32/30 29/31/29 24/26/24 23/25/23
f 84/91/84 27/118/27 30/117/30 85/92/85
f 87/119/87 88/120/88 27/29/27 84/121/84
f 88/120/88 89/122/89 28/30/28 27/29/27
f 28/30/28 31/33/31 34/36/34 29/31/29
f 89/122/89 90/123/90 31/33/31 28/30/28
f 90/123/90 91/124/91 32/34/32 31/33/31
f 10/10/10 35/125/35 38/70/38 11/11/11
f 56/126/56 42/44/42 35/37/35 10/127/10
f 42/44/42 41/43/41 36/38/36 35/37/35
f 55/128/55 39/41/39 42/44/42 56/126/56
f 92/129/92 93/130/93 39/41/39 55/128/55
f 93/130/93 94/131/94 40/42/40 39/41/39
f 40/42/40 43/45/43 45/48/45 41/43/41
f 94/131/94 95/132/95 43/45/43 40/42/40
f 95/132/95 17/133/17 16/46/16 43/45/43
f 90/134/90 46/49/46 49/52/49 91/135/91
f 89/136/89 53/56/53 46/49/46 90/134/90
f 53/56/53 52/55/52 47/50/47 46/49/46
f 88/137/88 50/53/50 53/56/53 89/136/89
f 87/138/87 96/139/96 50/53/50 88/137/88
f 96/139/96 97/140/97 51/54/51 50/53/50
f 51/54/51 54/141/54 57/96/57 52/55/52
f 97/140/97 98/142/98 54/141/54 51/54/51
f 98/142/98 92/143/92 55/144/55 54/141/54
f 2/2/2 58/61/58 61/64/61 3/3/3
f 33/35/33 65/145/65 58/61/58 2/2/2
f 65/68/65 64/67/64 59/146/59 58/147/58
f 32/34/32 62/148/62 65/145/65 33/35/33
f 91/124/91 49/149/49 62/148/62 32/34/32
f 49/150/49 48/95/48 63/66/63 62/65/62
f 63/66/63 66/69/66 67/72/67 64/67/64
f 48/95/48 12/12/12 66/69/66 63/66/63
f 12/12/12 11/11/11 38/70/38 66/69/66
f 26/116/26 68/73/68 22/24/22 21/23/21
f 25/27/25 74/151/74 68/152/68 26/28/26
f 74/79/74 73/78/73 69/109/69 68/153/68
f 4/4/4 71/154/71 74/151/74 25/27/25
f 3/3/3 61/64/61 71/154/71 4/4/4
f 61/155/61 60/101/60 72/77/72 71/76/71
f 72/77/72 75/80/75 76/83/76 73/78/73
f 60/101/60 14/16/14 75/80/75 72/77/72
f 14/16/14 7/15/7 6/81/6 75/80/75
f 95/156/95 77/84/77 18/20/18 17/19/17
f 94/157/94 82/89/82 77/84/77 95/156/95
f 82/89/82 81/88/81 78/85/78 77/84/77
f 93/130/93 79/158/79 82/159/82 94/131/94
f 92/143/92 98/142/98 79/160/79 93/161/93
f 98/142/98 97/140/97 80/162/80 79/160/79
f 80/87/80 83/90/83 86/93/86 81/88/81
f 97/163/97 96/164/96 83/90/83 80/87/80
f 96/164/96 87/165/87 84/91/84 83/90/83
